<?xml version="1.0" encoding="UTF-8"?>
<svg width="425px" height="158px" viewBox="0 0 425 158" version="1.1" xmlns="http://www.w3.org/2000/svg" xmlns:xlink="http://www.w3.org/1999/xlink">
    <!-- Generator: Sketch 49.2 (51160) - http://www.bohemiancoding.com/sketch -->
    <title>01</title>
    <desc>Created with Sketch.</desc>
    <defs></defs>
    <g id="hp" stroke="none" stroke-width="1" fill="none" fill-rule="evenodd">
        <g id="トップページ" transform="translate(-474.000000, -1005.000000)">
            <g id="メインコピー" transform="translate(292.000000, 1021.000000)">
                <g id="01" transform="translate(194.000000, 0.000000)">
                    <g id="Loading" transform="translate(182.000000, 15.000000)" fill="#4A4A4A">
                        <path d="M46.8192051,11.7346939 C54.9911134,11.7326391 62.9472034,14.3530519 69.5132302,19.2091837 L59.0606894,20.6887755 C56.9435333,20.8367089 55.3473798,22.6698288 55.4955807,24.7831633 C55.6437816,26.8964978 57.4802163,28.4897701 59.5973724,28.3418367 L60.1340554,28.3418367 L78.0234897,25.7908163 C79.0301633,25.6456626 79.9377799,25.1071143 80.5465183,24.2937385 C81.1552568,23.4803626 81.4152091,22.4588444 81.2691442,21.4540816 L78.7135107,3.59693878 C78.4171089,1.48360427 76.4605336,0.0102556187 74.3433775,0.306122449 C72.2262214,0.601989279 70.7502085,2.55503285 71.0466103,4.66836735 L72.0688637,11.7602041 C55.710126,0.982516488 34.3065127,1.73550496 18.7484928,13.636038 C3.19047291,25.5365711 -3.10441469,45.9705286 3.06676016,64.5408163 L9.27694948,58.3418367 C6.73548707,46.9849944 9.50933912,35.0908736 16.8143112,26.0220558 C24.1192832,16.9532381 35.161494,11.6952937 46.8192051,11.7346939 Z" id="Shape"></path>
                        <path d="M90.4438683,35.5102041 L84.233679,41.7091837 C87.6688769,57.3421323 80.9945082,73.4576763 67.5031835,82.1056685 C54.0118589,90.7536607 36.5539553,90.1069983 23.7418349,80.4846939 L32.0476437,79.3112245 C34.1647997,79.0153577 35.6408127,77.0623141 35.3444108,74.9489796 C35.048009,72.8356451 33.0914337,71.3622964 30.9742776,71.6581633 L13.0848433,74.2091837 C12.0781697,74.3543374 11.1705531,74.8928857 10.5618147,75.7062615 C9.95307627,76.5196374 9.69312392,77.5411556 9.83918884,78.5459184 L12.3948223,96.4030612 C12.6614747,98.2856426 14.2724285,99.6872502 16.1771598,99.6938776 L16.7138429,99.6938776 C17.7205165,99.5487238 18.6281331,99.0101756 19.2368715,98.1967997 C19.8456099,97.3834238 20.1055623,96.3619056 19.9594974,95.3571429 L18.6561243,86.1734694 C34.6500876,98.5006337 56.8304663,98.9659722 73.3291898,87.3204958 C89.8279133,75.6750194 96.7815549,54.6456935 90.4694247,35.4846939 L90.4438683,35.5102041 Z" id="Shape"></path>
                    </g>
                    <ellipse id="Oval-4" stroke="#4A4A4A" stroke-width="23" cx="41" cy="65" rx="41" ry="65"></ellipse>
                    <polyline id="Line-3" stroke="#4A4A4A" stroke-width="22.5" stroke-linecap="square" points="375 7.73313499 401 0 401 130"></polyline>
                </g>
            </g>
        </g>
    </g>
</svg>