<?xml version="1.0" encoding="UTF-8"?>
<svg width="1232px" height="626px" viewBox="0 0 1232 626" version="1.1" xmlns="http://www.w3.org/2000/svg" xmlns:xlink="http://www.w3.org/1999/xlink">
    <!-- Generator: Sketch 49.2 (51160) - http://www.bohemiancoding.com/sketch -->
    <title>Group 8</title>
    <desc>Created with Sketch.</desc>
    <defs></defs>
    <g id="完成" stroke="none" stroke-width="1" fill="none" fill-rule="evenodd">
        <g id="info_graphic_outline" transform="translate(-380.000000, -191.000000)">
            <g id="Group-7" transform="translate(388.000000, 176.000000)">
                <g id="Group-8">
                    <g id="Group-2" transform="translate(288.000000, 396.000000)" fill="#92BBB8">
                        <ellipse id="Oval-2-Copy" transform="translate(161.841267, 109.887900) rotate(-9.000000) translate(-161.841267, -109.887900) " cx="161.841267" cy="109.8879" rx="150" ry="87.5"></ellipse>
                        <path d="M190.26,221.992 L194.544,223.036 C193.068,227.716 190.944,231.892 188.352,235.384 C189.396,237.976 190.548,239.488 191.7,239.488 C192.564,239.488 192.996,237.688 193.176,233.188 C194.148,234.196 195.66,235.132 196.812,235.6 C196.128,242.26 194.688,243.844 191.34,243.844 C188.82,243.844 186.84,242.044 185.256,239.092 C183.42,241 181.404,242.62 179.172,243.988 C178.524,243.052 176.976,241.288 176.076,240.46 C178.848,238.948 181.332,236.968 183.42,234.628 C182.196,230.56 181.404,225.52 180.936,220.12 L170.496,220.12 L170.496,223.972 L179.388,223.972 C179.388,223.972 179.352,225.088 179.352,225.592 C179.244,233.152 179.028,236.356 178.2,237.4 C177.516,238.336 176.796,238.66 175.716,238.84 C174.78,238.984 173.232,238.984 171.576,238.948 C171.504,237.688 171.036,236.032 170.388,234.952 C171.684,235.06 172.908,235.096 173.484,235.096 C173.988,235.096 174.276,235.024 174.564,234.664 C174.924,234.16 175.068,232.432 175.176,227.896 L170.496,227.896 C170.352,233.152 169.596,240.172 166.644,244.564 C165.888,243.736 163.98,242.152 163.008,241.648 C165.744,237.328 165.996,231.064 165.996,226.384 L165.996,215.872 L180.684,215.872 C180.612,214.108 180.54,212.344 180.54,210.544 L185.04,210.544 C185.004,212.344 185.04,214.108 185.112,215.872 L190.62,215.872 C189.288,214.792 187.488,213.64 186.012,212.74 L188.604,210.184 C190.584,211.192 193.212,212.848 194.472,214.036 L192.744,215.872 L196.488,215.872 L196.488,220.12 L185.364,220.12 C185.688,223.72 186.192,227.104 186.804,229.984 C188.208,227.572 189.396,224.908 190.26,221.992 Z M227.124,231.208 L218.772,231.208 C219.564,232.612 220.5,233.836 221.616,234.952 C223.524,233.836 225.576,232.432 227.124,231.208 Z M228.384,231.208 L231.156,233.152 C229.104,234.628 226.692,236.068 224.532,237.22 C226.836,238.66 229.608,239.704 232.92,240.316 C232.02,241.252 230.796,243.016 230.22,244.168 C222.084,242.296 217.296,238.012 214.308,231.208 L210.168,231.208 L210.168,238.84 C212.688,238.48 215.352,238.084 217.944,237.688 L218.124,241.468 C212.616,242.368 206.676,243.268 202.32,243.916 L201.348,239.992 C202.644,239.848 204.12,239.632 205.74,239.452 L205.74,231.208 L199.8,231.208 L199.8,227.428 L205.776,227.428 L205.776,211.732 L228.492,211.732 L228.492,215.224 L210.168,215.224 L210.168,217.132 L227.484,217.132 L227.484,220.444 L210.168,220.444 L210.168,222.244 L227.484,222.244 L227.484,225.556 L210.168,225.556 L210.168,227.428 L232.236,227.428 L232.236,231.208 L228.384,231.208 Z M250.2,231.856 L247.644,235.132 C246.96,234.088 245.772,232.576 244.584,231.208 L244.584,244.132 L240.372,244.132 L240.372,232.396 C239.22,233.62 238.068,234.664 236.916,235.564 C236.52,234.52 235.404,232.432 234.72,231.676 C238.248,229.228 241.74,225.016 243.936,220.732 L235.728,220.732 L235.728,216.88 L240.372,216.88 L240.372,210.544 L244.584,210.544 L244.584,216.88 L246.132,216.88 L246.816,216.7 L249.228,218.284 C248.148,221.236 246.6,224.152 244.8,226.816 C245.088,227.068 245.412,227.356 245.772,227.68 C246.708,226.456 247.752,224.8 248.364,223.684 L251.1,225.952 C249.84,227.176 248.724,228.472 247.752,229.48 C248.832,230.488 249.804,231.46 250.2,231.856 Z M248.904,213.28 L268.092,213.28 C268.092,213.28 268.092,214.864 268.056,215.44 C267.732,233.44 267.408,239.704 266.04,241.648 C265.068,243.088 264.168,243.556 262.8,243.808 C261.504,244.06 259.524,244.024 257.58,243.988 C257.508,242.728 257.004,240.82 256.248,239.56 C258.12,239.704 259.812,239.704 260.676,239.704 C261.252,239.704 261.612,239.56 262.008,239.02 C263.016,237.832 263.412,232.036 263.664,217.312 L258.444,217.312 C258.156,227.716 257.184,238.084 249.156,244.168 C248.436,243.016 247.104,241.612 245.988,240.784 C253.368,235.6 253.908,226.492 254.088,217.312 L248.904,217.312 L248.904,213.28 Z M278.28,229.408 L278.28,231.856 L282.744,231.856 L282.744,229.408 L278.28,229.408 Z M282.744,218.5 L278.28,218.5 L278.28,220.588 L282.744,220.588 L282.744,218.5 Z M278.28,223.864 L278.28,226.132 L282.744,226.132 L282.744,223.864 L278.28,223.864 Z M288.864,231.856 L288.864,235.6 L271.188,235.6 L271.188,231.856 L274.428,231.856 L274.428,218.5 L271.62,218.5 L271.62,214.756 L274.428,214.756 L274.428,210.94 L278.28,210.94 L278.28,214.756 L282.744,214.756 L282.744,210.94 L286.668,210.94 L286.668,214.756 L289.116,214.756 L289.116,218.5 L286.668,218.5 L286.668,231.856 L288.864,231.856 Z M275.652,235.852 L279.648,237.04 C278.388,239.668 276.264,242.476 274.32,244.24 C273.528,243.484 271.872,242.26 270.9,241.684 C272.772,240.28 274.644,238.012 275.652,235.852 Z M294.3,228.4 L299.52,228.4 L299.52,223.972 L294.336,223.972 L294.336,225.304 C294.336,226.24 294.336,227.284 294.3,228.4 Z M299.52,215.98 L294.336,215.98 L294.336,220.192 L299.52,220.192 L299.52,215.98 Z M303.66,212.092 L303.66,239.38 C303.66,241.504 303.264,242.62 302.004,243.304 C300.744,243.988 298.908,244.096 296.244,244.06 C296.1,242.944 295.56,241.072 295.02,239.992 C296.568,240.1 298.296,240.064 298.8,240.064 C299.34,240.064 299.52,239.884 299.52,239.308 L299.52,232.216 L294.048,232.216 C293.652,236.464 292.752,240.964 290.808,244.204 C290.124,243.448 288.36,242.152 287.424,241.792 C287.532,241.576 287.676,241.396 287.784,241.18 L284.796,242.872 C284.076,241.468 282.348,239.092 280.944,237.436 L284.184,235.672 C285.48,237.112 287.172,239.092 288.072,240.568 C290.16,236.068 290.34,229.984 290.34,225.304 L290.34,212.092 L303.66,212.092 Z M322.308,232.972 L322.452,236.896 C319.644,237.328 316.692,237.796 313.956,238.192 L313.956,244.024 L309.852,244.024 L309.852,238.768 L307.584,239.092 L306.9,234.952 C307.8,234.844 308.772,234.736 309.852,234.628 L309.852,212.92 L311.868,213.496 C314.712,212.704 317.592,211.624 319.392,210.544 L322.92,213.568 C320.292,214.828 317.016,215.836 313.956,216.592 L313.956,219.364 L321.12,219.364 L321.12,223.36 L313.956,223.36 L313.956,226.312 L321.444,226.312 L321.444,230.272 L313.956,230.272 L313.956,234.124 C316.656,233.764 319.536,233.368 322.308,232.972 Z M334.044,230.2 L327.888,230.2 C328.608,231.856 329.616,233.332 330.84,234.664 C332.136,233.368 333.216,231.892 334.044,230.2 Z M336.744,226.168 L339.516,227.212 C338.4,231.424 336.528,234.736 334.08,237.364 C336.096,238.66 338.508,239.632 341.244,240.244 C340.272,241.144 339.048,242.908 338.472,244.096 C335.448,243.232 332.892,241.936 330.732,240.244 C328.248,242.008 325.332,243.268 322.128,244.204 C321.696,243.088 320.652,241.36 319.86,240.424 C322.776,239.776 325.404,238.696 327.672,237.22 C326.16,235.384 324.936,233.26 323.964,230.812 L326.232,230.2 L322.668,230.2 L322.668,226.312 L323.568,226.312 C322.884,225.484 321.588,224.224 320.832,223.756 C324.18,221.848 324.54,219.328 324.54,216.952 L324.54,211.804 L336.24,211.804 L336.24,220.372 C336.24,220.984 336.24,221.272 336.312,221.416 C336.42,221.524 336.492,221.596 336.672,221.596 L337.248,221.596 C337.428,221.596 337.608,221.56 337.716,221.452 C337.86,221.38 337.932,221.164 338.04,220.732 C338.076,220.192 338.148,219.148 338.148,217.744 C338.868,218.392 340.272,219.112 341.316,219.472 C341.244,220.912 341.064,222.46 340.812,223.144 C340.56,223.828 340.128,224.296 339.552,224.584 C339.012,224.872 338.184,224.98 337.572,224.98 L335.628,224.98 C334.728,224.98 333.72,224.764 333.108,224.116 C332.532,223.504 332.244,222.712 332.244,220.408 L332.244,215.548 L328.5,215.548 L328.5,217.096 C328.5,220.264 327.816,223.972 324.252,226.312 L336.024,226.312 L336.744,226.168 Z M353.016,211.876 L355.824,213.496 C354.888,216.556 353.736,220.444 352.728,223.252 C354.888,226.024 355.284,228.472 355.284,230.524 C355.32,232.792 354.816,234.34 353.736,235.132 C353.196,235.528 352.512,235.744 351.72,235.888 C351.108,235.96 350.28,235.96 349.452,235.924 C349.416,234.952 349.092,233.368 348.516,232.288 C349.128,232.36 349.596,232.36 350.028,232.324 C350.424,232.324 350.748,232.252 351,232.072 C351.396,231.784 351.576,231.028 351.576,229.984 C351.54,228.364 351.108,226.096 349.164,223.72 C349.848,221.452 350.604,218.32 351.144,215.872 L348.444,215.872 L348.444,244.132 L344.736,244.132 L344.736,212.056 L352.404,212.056 L353.016,211.876 Z M365.148,220.948 L365.472,224.152 C362.016,224.944 358.38,225.808 355.464,226.492 L354.492,222.964 C355.14,222.856 355.86,222.712 356.652,222.568 L356.652,210.976 L360.504,210.976 L360.504,214.756 L365.04,214.756 L365.04,218.104 L360.504,218.104 L360.504,221.848 L365.148,220.948 Z M371.052,233.98 L371.052,231.928 L361.152,231.928 L361.152,233.98 L371.052,233.98 Z M361.152,239.416 L371.052,239.416 L371.052,237.22 L361.152,237.22 L361.152,239.416 Z M367.344,225.772 L366.408,228.364 L375.228,228.364 L375.228,243.916 L371.052,243.916 L371.052,242.944 L361.152,242.944 L361.152,244.06 L357.192,244.06 L357.192,228.364 L362.268,228.364 C362.556,227.248 362.88,225.988 362.988,225.016 L367.344,225.772 Z M370.8,222.496 L372.78,222.496 C373.464,222.496 373.608,222.064 373.716,219.436 C374.472,220.048 376.056,220.66 377.136,220.912 C376.704,224.908 375.732,226.024 373.248,226.024 L370.152,226.024 C366.876,226.024 366.12,224.908 366.12,221.344 L366.12,210.976 L369.972,210.976 L369.972,215.296 C371.448,214.54 372.888,213.676 373.824,212.884 L376.596,215.692 C374.616,216.88 372.204,217.888 369.972,218.716 L369.972,221.344 C369.972,222.388 370.08,222.496 370.8,222.496 Z" id="成長初期段階"></path>
                    </g>
                    <g id="Group-3" transform="translate(694.000000, 164.000000)" fill="#E6B422">
                        <ellipse id="Oval-2" transform="translate(172.071992, 161.650000) rotate(-38.000000) translate(-172.071992, -161.650000) " cx="172.071992" cy="161.65" rx="150" ry="87.5"></ellipse>
                        <path d="M342.26,130.992 L346.544,132.036 C345.068,136.716 342.944,140.892 340.352,144.384 C341.396,146.976 342.548,148.488 343.7,148.488 C344.564,148.488 344.996,146.688 345.176,142.188 C346.148,143.196 347.66,144.132 348.812,144.6 C348.128,151.26 346.688,152.844 343.34,152.844 C340.82,152.844 338.84,151.044 337.256,148.092 C335.42,150 333.404,151.62 331.172,152.988 C330.524,152.052 328.976,150.288 328.076,149.46 C330.848,147.948 333.332,145.968 335.42,143.628 C334.196,139.56 333.404,134.52 332.936,129.12 L322.496,129.12 L322.496,132.972 L331.388,132.972 C331.388,132.972 331.352,134.088 331.352,134.592 C331.244,142.152 331.028,145.356 330.2,146.4 C329.516,147.336 328.796,147.66 327.716,147.84 C326.78,147.984 325.232,147.984 323.576,147.948 C323.504,146.688 323.036,145.032 322.388,143.952 C323.684,144.06 324.908,144.096 325.484,144.096 C325.988,144.096 326.276,144.024 326.564,143.664 C326.924,143.16 327.068,141.432 327.176,136.896 L322.496,136.896 C322.352,142.152 321.596,149.172 318.644,153.564 C317.888,152.736 315.98,151.152 315.008,150.648 C317.744,146.328 317.996,140.064 317.996,135.384 L317.996,124.872 L332.684,124.872 C332.612,123.108 332.54,121.344 332.54,119.544 L337.04,119.544 C337.004,121.344 337.04,123.108 337.112,124.872 L342.62,124.872 C341.288,123.792 339.488,122.64 338.012,121.74 L340.604,119.184 C342.584,120.192 345.212,121.848 346.472,123.036 L344.744,124.872 L348.488,124.872 L348.488,129.12 L337.364,129.12 C337.688,132.72 338.192,136.104 338.804,138.984 C340.208,136.572 341.396,133.908 342.26,130.992 Z M379.124,140.208 L370.772,140.208 C371.564,141.612 372.5,142.836 373.616,143.952 C375.524,142.836 377.576,141.432 379.124,140.208 Z M380.384,140.208 L383.156,142.152 C381.104,143.628 378.692,145.068 376.532,146.22 C378.836,147.66 381.608,148.704 384.92,149.316 C384.02,150.252 382.796,152.016 382.22,153.168 C374.084,151.296 369.296,147.012 366.308,140.208 L362.168,140.208 L362.168,147.84 C364.688,147.48 367.352,147.084 369.944,146.688 L370.124,150.468 C364.616,151.368 358.676,152.268 354.32,152.916 L353.348,148.992 C354.644,148.848 356.12,148.632 357.74,148.452 L357.74,140.208 L351.8,140.208 L351.8,136.428 L357.776,136.428 L357.776,120.732 L380.492,120.732 L380.492,124.224 L362.168,124.224 L362.168,126.132 L379.484,126.132 L379.484,129.444 L362.168,129.444 L362.168,131.244 L379.484,131.244 L379.484,134.556 L362.168,134.556 L362.168,136.428 L384.236,136.428 L384.236,140.208 L380.384,140.208 Z M416.744,120.3 L420.416,122.028 C418.976,123.324 417.68,124.584 416.6,125.412 L414.08,124.008 C414.98,123.036 416.132,121.38 416.744,120.3 Z M420.128,127.824 L417.608,130.344 C416.564,129.372 414.548,128.04 412.64,126.888 C413.468,129.912 414.98,132.18 417.644,132.396 C418.112,132.468 418.4,131.424 418.616,129.84 C419.3,130.668 420.236,131.676 421.028,132.18 C420.416,135.348 418.976,136.536 416.744,136.104 C410.984,135.384 409.112,130.596 408.32,124.944 L389.456,124.944 L389.456,121.128 L411.812,121.128 C411.884,122.352 411.992,123.576 412.172,124.728 L413.324,123.648 C415.556,124.764 418.616,126.6 420.128,127.824 Z M418.652,145.932 L418.076,146.544 C417.032,145.608 415.088,144.348 413.216,143.232 C413.936,146.616 415.232,149.028 417.68,149.244 C418.148,149.316 418.436,147.984 418.652,145.932 Z M420.56,143.952 L418.688,145.932 C419.372,146.868 420.308,147.948 421.1,148.416 C420.488,152.196 419.084,153.564 416.708,153.096 C410.516,152.268 409.112,145.932 408.644,138.48 L404.792,138.48 L404.792,152.628 L400.616,152.628 L400.616,138.48 L396.44,138.48 C396.188,143.484 395,148.956 390.104,153.132 C389.42,152.232 387.908,150.864 386.936,150.252 C391.004,146.832 392.084,142.512 392.336,138.48 L387.692,138.48 L387.692,134.592 L392.408,134.592 L392.408,131.496 C391.4,131.928 390.356,132.36 389.384,132.684 C388.88,131.856 387.728,130.164 386.972,129.408 C390.356,128.544 394.136,127.104 396.152,125.412 L399.788,126.816 C398.816,127.752 397.592,128.652 396.26,129.48 L396.476,129.48 L396.476,134.592 L400.616,134.592 L400.616,125.952 L404.792,125.952 L404.792,134.592 L412.46,134.592 C412.496,136.536 412.568,138.516 412.784,140.352 L413.396,139.74 L414.116,140.1 C415.016,139.092 416.168,137.508 416.78,136.428 L420.452,138.156 C419.048,139.416 417.752,140.64 416.708,141.468 C418.22,142.296 419.66,143.196 420.56,143.952 Z M442.088,147.084 L442.088,148.74 L446.12,148.74 L446.12,147.084 L442.088,147.084 Z M446.12,139.92 L446.12,138.336 L442.088,138.336 L442.088,139.92 L446.12,139.92 Z M446.12,144.312 L446.12,142.728 L442.088,142.728 L442.088,144.312 L446.12,144.312 Z M428.156,124.692 L428.156,129.696 L431.72,129.696 L431.72,124.692 L428.156,124.692 Z M456.668,148.74 L456.668,152.16 L442.088,152.16 L442.088,153.096 L438.236,153.096 L438.236,142.116 C437.768,142.62 437.3,143.088 436.796,143.52 C436.256,142.836 435.212,141.684 434.42,141 L432.332,141 L432.332,146.076 C433.664,145.788 434.996,145.464 436.328,145.176 L436.724,148.848 C432.116,149.964 427.22,151.116 423.476,151.944 L422.756,148.02 L424.412,147.732 L424.412,135.636 L427.58,135.636 L427.58,147.084 L428.912,146.796 L428.912,133.188 L424.736,133.188 L424.736,121.164 L435.392,121.164 L435.392,133.188 L432.332,133.188 L432.332,137.4 L435.752,137.4 L435.752,139.164 C437.48,137.22 438.92,134.772 439.82,132.576 L436.58,132.576 L436.58,129.66 L441.98,129.66 L441.98,128.184 L437.12,128.184 L437.12,125.304 L441.98,125.304 L441.98,123.864 L436.724,123.864 L436.724,120.912 L445.616,120.912 L445.616,132.576 L442.556,132.576 L444.104,133.008 C443.816,133.656 443.492,134.34 443.132,135.024 L446.768,135.024 C447.128,134.196 447.452,133.332 447.704,132.576 L446.696,132.576 L446.696,129.66 L452.204,129.66 L452.204,128.184 L447.128,128.184 L447.128,125.304 L452.204,125.304 L452.204,123.864 L446.696,123.864 L446.696,120.912 L455.876,120.912 L455.876,132.576 L450.368,132.576 L451.916,132.936 C451.52,133.656 451.088,134.34 450.692,135.024 L456.2,135.024 L456.2,138.336 L449.792,138.336 L449.792,139.92 L454.976,139.92 L454.976,142.728 L449.792,142.728 L449.792,144.312 L454.976,144.312 L454.976,147.084 L449.792,147.084 L449.792,148.74 L456.668,148.74 Z M474.308,141.972 L474.452,145.896 C471.644,146.328 468.692,146.796 465.956,147.192 L465.956,153.024 L461.852,153.024 L461.852,147.768 L459.584,148.092 L458.9,143.952 C459.8,143.844 460.772,143.736 461.852,143.628 L461.852,121.92 L463.868,122.496 C466.712,121.704 469.592,120.624 471.392,119.544 L474.92,122.568 C472.292,123.828 469.016,124.836 465.956,125.592 L465.956,128.364 L473.12,128.364 L473.12,132.36 L465.956,132.36 L465.956,135.312 L473.444,135.312 L473.444,139.272 L465.956,139.272 L465.956,143.124 C468.656,142.764 471.536,142.368 474.308,141.972 Z M486.044,139.2 L479.888,139.2 C480.608,140.856 481.616,142.332 482.84,143.664 C484.136,142.368 485.216,140.892 486.044,139.2 Z M488.744,135.168 L491.516,136.212 C490.4,140.424 488.528,143.736 486.08,146.364 C488.096,147.66 490.508,148.632 493.244,149.244 C492.272,150.144 491.048,151.908 490.472,153.096 C487.448,152.232 484.892,150.936 482.732,149.244 C480.248,151.008 477.332,152.268 474.128,153.204 C473.696,152.088 472.652,150.36 471.86,149.424 C474.776,148.776 477.404,147.696 479.672,146.22 C478.16,144.384 476.936,142.26 475.964,139.812 L478.232,139.2 L474.668,139.2 L474.668,135.312 L475.568,135.312 C474.884,134.484 473.588,133.224 472.832,132.756 C476.18,130.848 476.54,128.328 476.54,125.952 L476.54,120.804 L488.24,120.804 L488.24,129.372 C488.24,129.984 488.24,130.272 488.312,130.416 C488.42,130.524 488.492,130.596 488.672,130.596 L489.248,130.596 C489.428,130.596 489.608,130.56 489.716,130.452 C489.86,130.38 489.932,130.164 490.04,129.732 C490.076,129.192 490.148,128.148 490.148,126.744 C490.868,127.392 492.272,128.112 493.316,128.472 C493.244,129.912 493.064,131.46 492.812,132.144 C492.56,132.828 492.128,133.296 491.552,133.584 C491.012,133.872 490.184,133.98 489.572,133.98 L487.628,133.98 C486.728,133.98 485.72,133.764 485.108,133.116 C484.532,132.504 484.244,131.712 484.244,129.408 L484.244,124.548 L480.5,124.548 L480.5,126.096 C480.5,129.264 479.816,132.972 476.252,135.312 L488.024,135.312 L488.744,135.168 Z M505.016,120.876 L507.824,122.496 C506.888,125.556 505.736,129.444 504.728,132.252 C506.888,135.024 507.284,137.472 507.284,139.524 C507.32,141.792 506.816,143.34 505.736,144.132 C505.196,144.528 504.512,144.744 503.72,144.888 C503.108,144.96 502.28,144.96 501.452,144.924 C501.416,143.952 501.092,142.368 500.516,141.288 C501.128,141.36 501.596,141.36 502.028,141.324 C502.424,141.324 502.748,141.252 503,141.072 C503.396,140.784 503.576,140.028 503.576,138.984 C503.54,137.364 503.108,135.096 501.164,132.72 C501.848,130.452 502.604,127.32 503.144,124.872 L500.444,124.872 L500.444,153.132 L496.736,153.132 L496.736,121.056 L504.404,121.056 L505.016,120.876 Z M517.148,129.948 L517.472,133.152 C514.016,133.944 510.38,134.808 507.464,135.492 L506.492,131.964 C507.14,131.856 507.86,131.712 508.652,131.568 L508.652,119.976 L512.504,119.976 L512.504,123.756 L517.04,123.756 L517.04,127.104 L512.504,127.104 L512.504,130.848 L517.148,129.948 Z M523.052,142.98 L523.052,140.928 L513.152,140.928 L513.152,142.98 L523.052,142.98 Z M513.152,148.416 L523.052,148.416 L523.052,146.22 L513.152,146.22 L513.152,148.416 Z M519.344,134.772 L518.408,137.364 L527.228,137.364 L527.228,152.916 L523.052,152.916 L523.052,151.944 L513.152,151.944 L513.152,153.06 L509.192,153.06 L509.192,137.364 L514.268,137.364 C514.556,136.248 514.88,134.988 514.988,134.016 L519.344,134.772 Z M522.8,131.496 L524.78,131.496 C525.464,131.496 525.608,131.064 525.716,128.436 C526.472,129.048 528.056,129.66 529.136,129.912 C528.704,133.908 527.732,135.024 525.248,135.024 L522.152,135.024 C518.876,135.024 518.12,133.908 518.12,130.344 L518.12,119.976 L521.972,119.976 L521.972,124.296 C523.448,123.54 524.888,122.676 525.824,121.884 L528.596,124.692 C526.616,125.88 524.204,126.888 521.972,127.716 L521.972,130.344 C521.972,131.388 522.08,131.496 522.8,131.496 Z" id="成長飛躍段階"></path>
                    </g>
                    <g id="Group-4" transform="translate(146.000000, 0.000000)" stroke="#4A4A4A" stroke-width="15">
                        <path d="M0.0496877769,535.659561 C236.327532,533.813053 426.796382,497.875949 571.456239,427.84825 C716.116095,357.820551 835.22275,258.204468 928.776203,129" id="Line" stroke-linecap="square" stroke-dasharray="30"></path>
                        <polygon id="Triangle-2" fill="#4A4A4A" transform="translate(971.840112, 69.840112) rotate(36.000000) translate(-971.840112, -69.840112) " points="971.840112 19.8401123 1021.84011 119.840112 921.840112 119.840112"></polygon>
                    </g>
                    <g id="Group-6" transform="translate(812.000000, 435.000000)" fill="#EC6D55">
                        <ellipse id="Oval-3" cx="94.5" cy="52" rx="94.5" ry="52"></ellipse>
                        <path d="M33.232,119.288 L30.64,122.708 C29.452,121.52 26.896,119.864 24.772,118.892 L27.22,115.76 C29.236,116.624 31.9,118.1 33.232,119.288 Z M31.504,128.684 L28.984,132.14 C27.796,130.952 25.24,129.404 23.188,128.468 L25.528,125.3 C27.58,126.128 30.208,127.496 31.504,128.684 Z M27.688,148.772 L23.836,146.432 C25.348,143.624 27.508,139.016 29.092,134.804 L32.512,137.18 C31.108,141.032 29.344,145.244 27.688,148.772 Z M46.084,140.456 L49.9,140.456 C50.008,139.412 50.116,138.152 50.224,136.676 L46.516,136.676 C46.372,138.008 46.228,139.304 46.084,140.456 Z M42.844,136.676 L39.532,136.676 C39.352,137.972 39.172,139.232 39.028,140.456 L42.412,140.456 C42.556,139.304 42.7,138.008 42.844,136.676 Z M40.396,129.404 L40,132.824 L43.24,132.824 C43.312,131.672 43.42,130.52 43.492,129.404 L40.396,129.404 Z M46.876,132.824 L50.44,132.824 C50.476,131.78 50.548,130.628 50.584,129.404 L47.164,129.404 C47.092,130.52 46.984,131.672 46.876,132.824 Z M57.1,136.676 L54.148,136.676 C54.076,138.116 53.968,139.34 53.86,140.456 L56.704,140.456 L56.704,144.056 L53.392,144.056 C53.104,145.748 52.744,146.756 52.312,147.332 C51.52,148.448 50.656,148.808 49.432,148.952 C48.388,149.132 46.66,149.132 44.896,149.06 C44.86,148.016 44.428,146.504 43.852,145.568 C45.4,145.676 46.804,145.712 47.524,145.712 C48.136,145.712 48.496,145.604 48.856,145.136 C49,144.92 49.18,144.56 49.324,144.056 L38.488,144.056 L38.2,145.82 L34.096,145.496 C34.564,143.084 35.104,139.988 35.572,136.676 L32.476,136.676 L32.476,132.824 L36.076,132.824 C36.328,130.844 36.544,128.864 36.724,127.028 C36.292,127.604 35.86,128.108 35.428,128.612 C34.672,127.892 32.836,126.668 31.828,126.164 C34.384,123.644 36.436,119.576 37.552,115.508 L41.764,116.372 C41.44,117.452 41.08,118.532 40.684,119.576 L56.344,119.576 L56.344,123.392 L38.956,123.392 C38.524,124.22 38.056,125.012 37.552,125.768 L54.652,125.768 C54.652,125.768 54.652,126.992 54.616,127.496 C54.544,129.44 54.472,131.204 54.364,132.824 L57.1,132.824 L57.1,136.676 Z M73.696,124.796 L68.404,124.796 C67.756,126.272 67.036,127.64 66.244,128.972 C68.044,130.016 69.952,131.312 71.392,132.464 C72.364,130.16 73.12,127.604 73.696,124.796 Z M86.08,115.58 L86.08,132.356 C88.384,134.372 90.976,136.028 93.604,137.18 C92.56,138.08 91.192,139.808 90.472,140.924 C88.96,140.132 87.484,139.16 86.08,138.08 L86.08,149.06 L81.616,149.06 L81.616,133.904 C79.996,132.14 78.52,130.16 77.224,128.108 C74.524,138.296 69.52,145.172 63.112,148.808 C62.392,147.872 60.736,146.288 59.692,145.604 C63.652,143.552 66.928,140.456 69.448,136.28 C68.044,134.984 65.956,133.436 64.048,132.176 C63.472,132.968 62.86,133.652 62.212,134.3 C61.456,133.58 59.692,132.176 58.648,131.564 C62.608,127.964 65.524,121.952 67.108,115.508 L71.356,116.336 C70.96,117.848 70.528,119.288 70.024,120.728 L75.028,120.728 L75.784,120.584 L78.592,121.556 C78.412,122.636 78.232,123.68 78.052,124.688 L79.384,124.184 C79.996,125.336 80.752,126.524 81.616,127.64 L81.616,115.58 L86.08,115.58 Z M116.176,126.524 L116.176,124.256 L111.496,124.256 L111.496,126.524 L116.176,126.524 Z M116.176,132.356 L116.176,129.98 L111.496,129.98 L111.496,132.356 L116.176,132.356 Z M116.176,138.26 L116.176,135.812 L111.496,135.812 L111.496,138.26 L116.176,138.26 Z M107.356,141.86 L107.356,128.072 C106.708,128.756 106.06,129.368 105.412,129.944 C104.764,129.08 103.18,127.352 102.28,126.56 C105.592,124.04 108.58,119.9 110.236,115.616 L114.484,116.84 C113.944,118.136 113.332,119.396 112.648,120.656 L116.752,120.656 C117.364,119.072 117.904,117.308 118.264,115.904 L122.98,116.804 C122.332,118.1 121.684,119.432 121.036,120.656 L127.408,120.656 L127.408,124.256 L120.28,124.256 L120.28,126.524 L126.436,126.524 L126.436,129.98 L120.28,129.98 L120.28,132.356 L126.292,132.356 L126.292,135.812 L120.28,135.812 L120.28,138.26 L128.02,138.26 L128.02,141.86 L107.356,141.86 Z M104.548,122.132 L101.02,124.832 C100.012,123.068 97.636,120.584 95.62,118.856 L98.896,116.408 C100.912,118.028 103.396,120.404 104.548,122.132 Z M103.576,129.476 L103.576,140.96 C104.98,143.372 107.5,144.38 111.172,144.524 C115.492,144.704 123.988,144.596 128.956,144.2 C128.452,145.208 127.84,147.188 127.624,148.376 C123.16,148.592 115.528,148.664 111.136,148.484 C106.852,148.304 103.972,147.26 101.812,144.488 C100.372,145.892 98.896,147.26 97.06,148.808 L95.044,144.56 C96.448,143.66 98.068,142.472 99.508,141.248 L99.508,133.4 L95.476,133.4 L95.476,129.476 L103.576,129.476 Z M158.008,133.868 L162.472,133.868 L162.472,149.096 L158.008,149.096 L158.008,147.044 L138.064,147.044 L138.064,149.132 L133.708,149.132 L133.708,133.868 L138.064,133.868 L138.064,142.832 L145.588,142.832 L145.588,131.96 L135.148,131.96 L135.148,118.892 L139.396,118.892 L139.396,127.784 L145.588,127.784 L145.588,115.868 L149.98,115.868 L149.98,127.784 L156.532,127.784 L156.532,118.892 L161.032,118.892 L161.032,131.96 L149.98,131.96 L149.98,142.832 L158.008,142.832 L158.008,133.868 Z" id="海外進出"></path>
                    </g>
                    <g id="Group" transform="translate(0.000000, 453.000000)">
                        <circle id="Oval" stroke="#4A4A4A" stroke-width="15" cx="69.5" cy="69.5" r="69.5"></circle>
                        <path d="M42.792,56.492 L48.516,56.492 C47.472,55.484 46.356,54.44 45.312,53.612 C44.556,54.548 43.728,55.52 42.792,56.492 Z M48.552,63.62 L41.172,63.62 L41.172,64.916 L48.552,64.916 L48.552,63.62 Z M41.064,68.84 L48.552,68.84 L48.552,67.472 L41.136,67.472 C41.136,67.904 41.1,68.372 41.064,68.84 Z M49.236,76.328 L43.152,76.328 L43.152,78.884 L49.236,78.884 L49.236,76.328 Z M49.524,59.372 L41.208,59.372 L41.208,58.004 C40.236,58.904 39.192,59.768 38.004,60.632 L52.404,60.632 L52.404,71.828 L40.776,71.828 C40.704,72.296 40.632,72.8 40.524,73.268 L52.944,73.268 L52.944,82.952 L49.236,82.952 L49.236,81.944 L43.152,81.944 L43.152,83.06 L39.552,83.06 L39.552,77.12 C38.904,79.028 38.004,80.864 36.78,82.376 C36.24,81.656 34.728,80.252 33.972,79.82 C37.14,75.68 37.536,69.92 37.536,65.852 L37.536,60.956 C37.14,61.208 36.744,61.496 36.348,61.748 C35.844,60.812 34.62,59.372 33.792,58.724 C38.076,56.24 41.136,52.892 42.828,49.94 L46.644,49.94 C49.164,51.884 52.44,54.548 54.168,56.42 L51.432,59.588 C50.928,59.012 50.28,58.292 49.524,57.5 L49.524,59.372 Z M58.56,53.864 L58.56,74.132 L54.528,74.132 L54.528,53.864 L58.56,53.864 Z M62.376,50.228 L66.552,50.228 L66.552,78.02 C66.552,80.396 66.084,81.584 64.644,82.232 C63.276,82.952 61.044,83.096 57.948,83.096 C57.768,81.908 57.156,79.964 56.544,78.74 C58.704,78.812 60.792,78.812 61.476,78.812 C62.124,78.812 62.376,78.596 62.376,77.984 L62.376,50.228 Z M91.428,58.868 L82.824,58.868 C83.328,59.804 83.796,60.848 84.048,61.64 L83.436,61.748 L90.168,61.748 C90.6,60.884 91.032,59.84 91.428,58.868 Z M103.056,74.924 L92.616,74.924 C95.676,76.796 99.852,78.2 104.028,78.848 C103.056,79.784 101.796,81.584 101.148,82.736 C96.72,81.62 92.364,79.46 89.052,76.652 L89.052,83.132 L84.84,83.132 L84.84,76.868 C81.492,79.496 77.064,81.584 72.78,82.7 C72.168,81.656 70.944,80 70.044,79.136 C74.076,78.308 78.324,76.796 81.42,74.924 L71.088,74.924 L71.088,71.396 L84.84,71.396 L84.84,69.812 L74.472,69.812 L74.472,66.716 L84.84,66.716 L84.84,65.096 L72.672,65.096 L72.672,61.748 L79.512,61.748 C79.224,60.848 78.756,59.768 78.288,58.94 L78.72,58.868 L71.196,58.868 L71.196,55.376 L76.02,55.376 C75.516,54.008 74.58,52.28 73.788,50.912 L77.46,49.652 C78.504,51.2 79.692,53.324 80.196,54.728 L78.432,55.376 L81.708,55.376 L81.708,49.508 L85.704,49.508 L85.704,55.376 L88.368,55.376 L88.368,49.508 L92.4,49.508 L92.4,55.376 L95.604,55.376 L94.308,54.98 C95.172,53.504 96.072,51.344 96.576,49.76 L101.076,50.84 C100.068,52.496 99.096,54.116 98.268,55.376 L102.948,55.376 L102.948,58.868 L96.18,58.868 C95.604,59.912 95.028,60.884 94.488,61.748 L101.544,61.748 L101.544,65.096 L89.052,65.096 L89.052,66.716 L99.852,66.716 L99.852,69.812 L89.052,69.812 L89.052,71.396 L103.056,71.396 L103.056,74.924 Z" id="創業" fill="#4A4A4A"></path>
                    </g>
                    <g id="Group-Copy" transform="translate(797.000000, 257.000000)">
                        <circle id="Oval" stroke="#4A4A4A" stroke-width="15" fill="#FFFFFF" cx="69.5" cy="69.5" r="69.5"></circle>
                        <path d="M41.47,80 L41.47,53.36 L46.798,53.36 L46.798,80 L41.47,80 Z M53.35,80 L53.35,53.36 L62.098,53.36 C68.002,53.36 72.538,55.412 72.538,61.712 C72.538,67.796 67.966,70.532 62.242,70.532 L58.678,70.532 L58.678,80 L53.35,80 Z M58.678,66.32 L61.882,66.32 C65.554,66.32 67.318,64.772 67.318,61.712 C67.318,58.616 65.374,57.572 61.702,57.572 L58.678,57.572 L58.678,66.32 Z M87.946,80.504 C80.89,80.504 76.03,75.212 76.03,66.572 C76.03,57.896 80.89,52.856 87.946,52.856 C95.002,52.856 99.862,57.932 99.862,66.572 C99.862,75.212 95.002,80.504 87.946,80.504 Z M87.946,75.896 C91.906,75.896 94.426,72.26 94.426,66.572 C94.426,60.848 91.906,57.428 87.946,57.428 C83.986,57.428 81.466,60.848 81.466,66.572 C81.466,72.26 83.986,75.896 87.946,75.896 Z" id="IPO" fill="#4A4A4A"></path>
                    </g>
                    <g id="Group-5" transform="translate(673.000000, 403.000000)" stroke="#4A4A4A" stroke-width="7">
                        <path d="M2.48896192,96.8828325 C61.0892638,80.1456342 114.063889,74.8459689 161.412838,80.9838366 C208.761787,87.1217042 286.093197,71.465495 393.407067,34.0152091" id="Line-2" stroke-dasharray="20" transform="translate(197.948014, 65.449021) rotate(10.000000) translate(-197.948014, -65.449021) "></path>
                        <polygon id="Triangle-3" fill="#4A4A4A" transform="translate(425.310904, 60.310904) rotate(79.000000) translate(-425.310904, -60.310904) " points="425.310904 35.3109045 450.310904 85.3109045 400.310904 85.3109045"></polygon>
                    </g>
                </g>
            </g>
        </g>
    </g>
</svg>