<?xml version="1.0" encoding="UTF-8"?>
<svg width="392px" height="231px" viewBox="0 0 392 231" version="1.1" xmlns="http://www.w3.org/2000/svg" xmlns:xlink="http://www.w3.org/1999/xlink">
    <!-- Generator: Sketch 49.2 (51160) - http://www.bohemiancoding.com/sketch -->
    <title>Group 2</title>
    <desc>Created with Sketch.</desc>
    <defs></defs>
    <g id="完成" stroke="none" stroke-width="1" fill="none" fill-rule="evenodd">
        <g id="vcn_logo2_outline" transform="translate(-306.000000, -388.000000)" fill="#385D89">
            <g id="Group-2" transform="translate(302.000000, 388.000000)">
                <g id="logo" transform="translate(0.000000, 36.000000)">
                    <g id="Group">
                        <path d="M40.55,11.55 L50.3,35 C50.3,35.0333335 50.366666,35.2583312 50.5,35.675 C50.633334,36.0916687 50.733333,36.4833315 50.8,36.85 C50.866667,36.4833315 50.966666,36.0916687 51.1,35.675 C51.233334,35.2583312 51.3166665,35.0333335 51.35,35 L61.1,11.55 L67.15,11.55 C67.016666,11.8500015 66.7000025,12.599994 66.2,13.8 C65.6999975,15.000006 65.0750038,16.4749913 64.325,18.225 C63.5749963,19.9750087 62.7416713,21.9249892 61.825,24.075 C60.9083288,26.2250107 59.9666715,28.4083222 59,30.625 C58.0333285,32.8416778 57.0916713,35.0333225 56.175,37.2 C55.2583288,39.3666775 54.4250038,41.3249912 53.675,43.075 C52.9249962,44.8250087 52.2916692,46.2916607 51.775,47.475 C51.2583307,48.6583392 50.933334,49.3999985 50.8,49.7 C50.666666,49.3999985 50.3500025,48.6583392 49.85,47.475 C49.3499975,46.2916607 48.7250037,44.8250087 47.975,43.075 C47.2249963,41.3249912 46.3916713,39.3666775 45.475,37.2 C44.5583288,35.0333225 43.6166715,32.8416778 42.65,30.625 C41.6833285,28.4083222 40.7416712,26.2250107 39.825,24.075 C38.9083288,21.9249892 38.0750038,19.9750087 37.325,18.225 C36.5749962,16.4749913 35.9500025,15.000006 35.45,13.8 C34.9499975,12.599994 34.633334,11.8500015 34.5,11.55 L40.55,11.55 Z M83.2,45.55 C82.1666615,46.483338 80.916674,47.216664 79.45,47.75 C77.983326,48.283336 76.483341,48.55 74.95,48.55 C73.3833255,48.55 71.9083403,48.2583362 70.525,47.675 C69.1416598,47.0916638 67.9416717,46.2916717 66.925,45.275 C65.9083282,44.2583282 65.100003,43.0750068 64.5,41.725 C63.899997,40.3749933 63.6,38.933341 63.6,37.4 C63.6,35.866659 63.899997,34.4250068 64.5,33.075 C65.100003,31.7249933 65.9083282,30.5416717 66.925,29.525 C67.9416717,28.5083282 69.1249933,27.7083363 70.475,27.125 C71.8250068,26.5416637 73.2499925,26.25 74.75,26.25 C77.150012,26.25 79.2583243,26.9749927 81.075,28.425 C82.8916757,29.8750072 84.1833295,31.7833215 84.95,34.15 C83.949995,34.5166685 82.7916733,34.9583308 81.475,35.475 C80.1583268,35.9916693 78.7833405,36.5333305 77.35,37.1 C75.9166595,37.6666695 74.4833405,38.2416638 73.05,38.825 C71.6166595,39.4083362 70.300006,39.933331 69.1,40.4 C69.6666695,41.4333385 70.449995,42.2666635 71.45,42.9 C72.450005,43.5333365 73.583327,43.85 74.85,43.85 C75.716671,43.85 76.5916622,43.6916683 77.475,43.375 C78.3583378,43.0583318 79.0833305,42.633336 79.65,42.1 L83.2,45.55 Z M79,33.05 C78.599998,32.316663 78.000004,31.7750017 77.2,31.425 C76.399996,31.0749982 75.6166705,30.9 74.85,30.9 C73.9499955,30.9 73.100004,31.0749982 72.3,31.425 C71.499996,31.7750017 70.8166695,32.2416638 70.25,32.825 C69.6833305,33.4083362 69.233335,34.0749962 68.9,34.825 C68.566665,35.5750037 68.4,36.349996 68.4,37.15 L68.4,37.35 C69.2333375,37.016665 70.1249952,36.6583352 71.075,36.275 C72.0250047,35.8916647 72.9749953,35.500002 73.925,35.1 C74.8750048,34.699998 75.783329,34.3250017 76.65,33.975 C77.516671,33.6249983 78.2999965,33.316668 79,33.05 Z M88.65,26.75 L92.85,26.75 C92.916667,27.950006 92.9916663,28.9249962 93.075,29.675 C93.1583337,30.4250038 93.233333,31.266662 93.3,32.2 C94.0666705,30.399991 95.149993,28.9500055 96.55,27.85 C97.950007,26.7499945 99.6999895,26.2 101.8,26.2 C103.966678,26.2 105.69166,26.7916607 106.975,27.975 C108.25834,29.1583392 108.933333,30.6999905 109,32.6 L109,48 L104.25,48 L104.25,34.85 C104.183333,33.8166615 103.81667,32.9250038 103.15,32.175 C102.48333,31.4249962 101.450007,31.016667 100.05,30.95 C99.0833285,30.95 98.1916708,31.1249982 97.375,31.475 C96.5583292,31.8250017 95.8583363,32.299997 95.275,32.9 C94.6916638,33.500003 94.2416683,34.2166625 93.925,35.05 C93.6083318,35.8833375 93.45,36.7833285 93.45,37.75 L93.45,48 L88.65,48 L88.65,26.75 Z M116.7,17.45 L121.45,17.45 L121.45,26.75 L127,26.75 L127,31.05 L121.45,31.05 L121.45,48 L116.7,48 L116.7,31.05 L113.1,31.05 L113.1,26.75 L116.7,26.75 L116.7,17.45 Z M150.75,48.5 L146.75,48.5 L146.15,42.6 C145.38333,44.3000085 144.325007,45.7083277 142.975,46.825 C141.624993,47.9416722 139.850011,48.5 137.65,48.5 C135.449989,48.5 133.70834,47.9250057 132.425,46.775 C131.14166,45.6249943 130.466667,44.1000095 130.4,42.2 L130.4,26.75 L135.2,26.75 L135.2,39.95 C135.266667,40.9833385 135.624997,41.8583297 136.275,42.575 C136.925003,43.2916702 137.966659,43.683333 139.4,43.75 C140.366671,43.75 141.249996,43.583335 142.05,43.25 C142.850004,42.916665 143.541664,42.450003 144.125,41.85 C144.708336,41.249997 145.166665,40.5333375 145.5,39.7 C145.833335,38.8666625 146,37.9666715 146,37 L146,26.75 L150.75,26.75 L150.75,48.5 Z M168.55,32.4 C167.616662,32.4 166.725004,32.5166655 165.875,32.75 C165.024996,32.9833345 164.275003,33.3416643 163.625,33.825 C162.974997,34.3083357 162.450002,34.9083298 162.05,35.625 C161.649998,36.3416702 161.45,37.1833285 161.45,38.15 L161.45,48 L156.65,48 L156.65,26.75 L160.85,26.75 C160.916667,27.950006 160.991666,28.9249962 161.075,29.675 C161.158334,30.4250038 161.233333,31.266662 161.3,32.2 C161.733335,31.266662 162.316663,30.433337 163.05,29.7 C163.783337,28.966663 164.541663,28.3416692 165.325,27.825 C166.108337,27.3083307 166.883329,26.9083347 167.65,26.625 C168.41667,26.3416653 169.066664,26.2 169.6,26.2 L168.55,32.4 Z M190.7,45.55 C189.666662,46.483338 188.416674,47.216664 186.95,47.75 C185.483326,48.283336 183.983341,48.55 182.45,48.55 C180.883326,48.55 179.40834,48.2583362 178.025,47.675 C176.64166,47.0916638 175.441672,46.2916717 174.425,45.275 C173.408328,44.2583282 172.600003,43.0750068 172,41.725 C171.399997,40.3749933 171.1,38.933341 171.1,37.4 C171.1,35.866659 171.399997,34.4250068 172,33.075 C172.600003,31.7249933 173.408328,30.5416717 174.425,29.525 C175.441672,28.5083282 176.624993,27.7083363 177.975,27.125 C179.325007,26.5416637 180.749993,26.25 182.25,26.25 C184.650012,26.25 186.758324,26.9749927 188.575,28.425 C190.391676,29.8750072 191.68333,31.7833215 192.45,34.15 C191.449995,34.5166685 190.291673,34.9583308 188.975,35.475 C187.658327,35.9916693 186.283341,36.5333305 184.85,37.1 C183.41666,37.6666695 181.983341,38.2416638 180.55,38.825 C179.11666,39.4083362 177.800006,39.933331 176.6,40.4 C177.16667,41.4333385 177.949995,42.2666635 178.95,42.9 C179.950005,43.5333365 181.083327,43.85 182.35,43.85 C183.216671,43.85 184.091662,43.6916683 184.975,43.375 C185.858338,43.0583318 186.583331,42.633336 187.15,42.1 L190.7,45.55 Z M186.5,33.05 C186.099998,32.316663 185.500004,31.7750017 184.7,31.425 C183.899996,31.0749982 183.116671,30.9 182.35,30.9 C181.449996,30.9 180.600004,31.0749982 179.8,31.425 C178.999996,31.7750017 178.31667,32.2416638 177.75,32.825 C177.183331,33.4083362 176.733335,34.0749962 176.4,34.825 C176.066665,35.5750037 175.9,36.349996 175.9,37.15 L175.9,37.35 C176.733338,37.016665 177.624995,36.6583352 178.575,36.275 C179.525005,35.8916647 180.474995,35.500002 181.425,35.1 C182.375005,34.699998 183.283329,34.3250017 184.15,33.975 C185.016671,33.6249983 185.799997,33.316668 186.5,33.05 Z" id="Venture"></path>
                        <path d="M84.15,94.3 C83.749998,94.566668 83.1916703,94.8833315 82.475,95.25 C81.7583298,95.6166685 80.9083382,95.9583317 79.925,96.275 C78.9416618,96.5916682 77.8333395,96.8583323 76.6,97.075 C75.3666605,97.2916678 74.050007,97.4 72.65,97.4 C69.783319,97.4 67.216678,96.9083382 64.95,95.925 C62.683322,94.9416617 60.7666745,93.616675 59.2,91.95 C57.6333255,90.283325 56.4333375,88.3333445 55.6,86.1 C54.7666625,83.8666555 54.35,81.516679 54.35,79.05 C54.35,76.316653 54.849995,73.7916783 55.85,71.475 C56.850005,69.1583217 58.2083248,67.1583418 59.925,65.475 C61.6416752,63.7916582 63.6416552,62.483338 65.925,61.55 C68.2083448,60.616662 70.649987,60.15 73.25,60.15 C74.250005,60.15 75.2583283,60.2249992 76.275,60.375 C77.2916718,60.5250008 78.2499955,60.7166655 79.15,60.95 C80.0500045,61.1833345 80.8416633,61.4499985 81.525,61.75 C82.2083368,62.0500015 82.6999985,62.366665 83,62.7 C82.6999985,63.166669 82.4666675,63.5499985 82.3,63.85 C82.1333325,64.1500015 81.9583343,64.4583317 81.775,64.775 C81.5916658,65.0916682 81.3916677,65.449998 81.175,65.85 C80.9583322,66.250002 80.650002,66.7999965 80.25,67.5 C79.849998,67.233332 79.3666695,67.000001 78.8,66.8 C78.2333305,66.599999 77.6416698,66.4416672 77.025,66.325 C76.4083303,66.2083327 75.7833365,66.116667 75.15,66.05 C74.5166635,65.983333 73.9500025,65.95 73.45,65.95 C71.583324,65.95 69.8583412,66.2999965 68.275,67 C66.6916588,67.7000035 65.3250058,68.6249943 64.175,69.775 C63.0249942,70.9250057 62.1250032,72.266659 61.475,73.8 C60.8249967,75.333341 60.5,76.9166585 60.5,78.55 C60.5,80.150008 60.8083302,81.7083258 61.425,83.225 C62.0416697,84.7416743 62.9083277,86.0833275 64.025,87.25 C65.1416722,88.4166725 66.466659,89.3583297 68,90.075 C69.533341,90.7916702 71.233324,91.15 73.1,91.15 C74.166672,91.15 75.199995,91.0416678 76.2,90.825 C77.200005,90.6083323 78.0833295,90.366668 78.85,90.1 C79.6166705,89.833332 80.2416642,89.566668 80.725,89.3 C81.2083358,89.033332 81.4666665,88.8500005 81.5,88.75 L84.15,94.3 Z M85.75,86.6 C85.75,85.066659 86.049997,83.6083402 86.65,82.225 C87.250003,80.8416597 88.0583283,79.6333385 89.075,78.6 C90.0916718,77.5666615 91.2749932,76.7416697 92.625,76.125 C93.9750068,75.5083303 95.3999925,75.2 96.9,75.2 C97.900005,75.2 98.799996,75.3249988 99.6,75.575 C100.400004,75.8250012 101.091664,76.116665 101.675,76.45 C102.258336,76.783335 102.716665,77.1249983 103.05,77.475 C103.383335,77.8250017 103.599999,78.099999 103.7,78.3 L103.9,75.75 L108.55,75.75 L108.55,97 L103.7,97 L103.7,95.6 C103.7,95.4333325 103.708333,95.2750008 103.725,95.125 C103.741667,94.9749992 103.75,94.866667 103.75,94.8 C103.616666,94.9666675 103.383335,95.2083317 103.05,95.525 C102.716665,95.8416682 102.26667,96.1499985 101.7,96.45 C101.13333,96.7500015 100.458337,97.0083322 99.675,97.225 C98.8916627,97.4416677 97.9833385,97.55 96.95,97.55 C95.3166585,97.55 93.8166735,97.250003 92.45,96.65 C91.0833265,96.049997 89.900005,95.250005 88.9,94.25 C87.899995,93.249995 87.1250027,92.0916732 86.575,90.775 C86.0249972,89.4583267 85.75,88.066674 85.75,86.6 Z M90.6,86.3 C90.6,87.233338 90.7583317,88.099996 91.075,88.9 C91.3916683,89.700004 91.8416638,90.3916638 92.425,90.975 C93.0083363,91.5583362 93.699996,92.016665 94.5,92.35 C95.300004,92.683335 96.1833285,92.85 97.15,92.85 C98.1166715,92.85 98.999996,92.683335 99.8,92.35 C100.600004,92.016665 101.291664,91.550003 101.875,90.95 C102.458336,90.349997 102.908332,89.650004 103.225,88.85 C103.541668,88.049996 103.7,87.2000045 103.7,86.3 C103.7,85.3999955 103.541668,84.5583372 103.225,83.775 C102.908332,82.9916628 102.458336,82.3166695 101.875,81.75 C101.291664,81.1833305 100.600004,80.733335 99.8,80.4 C98.999996,80.066665 98.1166715,79.9 97.15,79.9 C96.1833285,79.9 95.300004,80.0583317 94.5,80.375 C93.699996,80.6916682 93.0083363,81.1416637 92.425,81.725 C91.8416638,82.3083362 91.3916683,82.9916628 91.075,83.775 C90.7583317,84.5583372 90.6,85.3999955 90.6,86.3 Z M116.4,66.45 L121.15,66.45 L121.15,75.75 L126.7,75.75 L126.7,80.05 L121.15,80.05 L121.15,97 L116.4,97 L116.4,80.05 L112.8,80.05 L112.8,75.75 L116.4,75.75 L116.4,66.45 Z M128.5,86.6 C128.5,85.066659 128.799997,83.6083402 129.4,82.225 C130.000003,80.8416597 130.808328,79.6333385 131.825,78.6 C132.841672,77.5666615 134.024993,76.7416697 135.375,76.125 C136.725007,75.5083303 138.149992,75.2 139.65,75.2 C140.650005,75.2 141.549996,75.3249988 142.35,75.575 C143.150004,75.8250012 143.841664,76.116665 144.425,76.45 C145.008336,76.783335 145.466665,77.1249983 145.8,77.475 C146.133335,77.8250017 146.35,78.099999 146.45,78.3 L146.65,75.75 L151.3,75.75 L151.3,97 L146.45,97 L146.45,95.6 C146.45,95.4333325 146.458333,95.2750008 146.475,95.125 C146.491667,94.9749992 146.5,94.866667 146.5,94.8 C146.366666,94.9666675 146.133335,95.2083317 145.8,95.525 C145.466665,95.8416682 145.01667,96.1499985 144.45,96.45 C143.88333,96.7500015 143.208337,97.0083322 142.425,97.225 C141.641663,97.4416677 140.733339,97.55 139.7,97.55 C138.066659,97.55 136.566674,97.250003 135.2,96.65 C133.833326,96.049997 132.650005,95.250005 131.65,94.25 C130.649995,93.249995 129.875003,92.0916732 129.325,90.775 C128.774997,89.4583267 128.5,88.066674 128.5,86.6 Z M133.35,86.3 C133.35,87.233338 133.508332,88.099996 133.825,88.9 C134.141668,89.700004 134.591664,90.3916638 135.175,90.975 C135.758336,91.5583362 136.449996,92.016665 137.25,92.35 C138.050004,92.683335 138.933329,92.85 139.9,92.85 C140.866671,92.85 141.749996,92.683335 142.55,92.35 C143.350004,92.016665 144.041664,91.550003 144.625,90.95 C145.208336,90.349997 145.658332,89.650004 145.975,88.85 C146.291668,88.049996 146.45,87.2000045 146.45,86.3 C146.45,85.3999955 146.291668,84.5583372 145.975,83.775 C145.658332,82.9916628 145.208336,82.3166695 144.625,81.75 C144.041664,81.1833305 143.350004,80.733335 142.55,80.4 C141.749996,80.066665 140.866671,79.9 139.9,79.9 C138.933329,79.9 138.050004,80.0583317 137.25,80.375 C136.449996,80.6916682 135.758336,81.1416637 135.175,81.725 C134.591664,82.3083362 134.141668,82.9916628 133.825,83.775 C133.508332,84.5583372 133.35,85.3999955 133.35,86.3 Z M161.95,97 L157.2,97 L157.2,57.95 L161.95,57.95 L161.95,97 Z M173.95,107.2 L169.15,107.2 C169.650002,106.199995 170.116665,105.241671 170.55,104.325 C170.983336,103.408329 171.416665,102.475005 171.85,101.525 C172.283336,100.574995 172.733331,99.600005 173.2,98.6 C173.666669,97.599995 174.183331,96.5166725 174.75,95.35 C173.983329,93.8499925 173.191671,92.266675 172.375,90.6 C171.558329,88.933325 170.733338,87.2500085 169.9,85.55 C169.066663,83.8499915 168.241671,82.166675 167.425,80.5 C166.608329,78.833325 165.833337,77.2500075 165.1,75.75 L170.3,75.75 C171.566673,78.216679 172.599996,80.283325 173.4,81.95 C174.200004,83.616675 174.849998,85.016661 175.35,86.15 C175.850003,87.283339 176.233332,88.2083298 176.5,88.925 C176.766668,89.6416703 176.983333,90.299997 177.15,90.9 C177.350001,90.299997 177.583332,89.6416703 177.85,88.925 C178.116668,88.2083298 178.499998,87.283339 179,86.15 C179.500002,85.016661 180.149996,83.616675 180.95,81.95 C181.750004,80.283325 182.783327,78.216679 184.05,75.75 L189.2,75.75 L173.95,107.2 Z M204.15,77.65 C203.949999,77.9500015 203.708335,78.2916647 203.425,78.675 C203.141665,79.0583352 202.866668,79.416665 202.6,79.75 C202.333332,80.083335 202.108334,80.3749988 201.925,80.625 L201.65,81 L201.4,80.825 C201.233333,80.7083327 200.991668,80.583334 200.675,80.45 C200.358332,80.316666 199.991669,80.1916672 199.575,80.075 C199.158331,79.9583327 198.733336,79.9 198.3,79.9 C197.833331,79.9 197.341669,80.0083322 196.825,80.225 C196.308331,80.4416677 196.05,80.88333 196.05,81.55 C196.05,82.1166695 196.274998,82.5916648 196.725,82.975 C197.175002,83.3583352 197.724997,83.7083317 198.375,84.025 C199.025003,84.3416682 199.741663,84.666665 200.525,85 C201.308337,85.333335 202.024997,85.7499975 202.675,86.25 C203.325003,86.7500025 203.874998,87.3749963 204.325,88.125 C204.775002,88.8750037 205,89.7999945 205,90.9 C205,91.8666715 204.825002,92.749996 204.475,93.55 C204.124998,94.350004 203.625003,95.0333305 202.975,95.6 C202.324997,96.1666695 201.550005,96.616665 200.65,96.95 C199.749996,97.283335 198.733339,97.45 197.6,97.45 C196.233327,97.45 194.90834,97.216669 193.625,96.75 C192.34166,96.283331 191.333337,95.616671 190.6,94.75 C190.833335,94.483332 191.116665,94.150002 191.45,93.75 C191.783335,93.349998 192.099999,92.9666685 192.4,92.6 C192.700002,92.2333315 192.958332,91.9250013 193.175,91.675 L193.5,91.3 C193.5,91.2666665 193.608332,91.3249993 193.825,91.475 C194.041668,91.6250007 194.333332,91.799999 194.7,92 C195.066669,92.200001 195.499998,92.3833325 196,92.55 C196.500003,92.7166675 197.016664,92.8 197.55,92.8 C198.383338,92.8 199.024998,92.6166685 199.475,92.25 C199.925002,91.8833315 200.15,91.433336 200.15,90.9 C200.15,90.366664 199.925002,89.933335 199.475,89.6 C199.024998,89.266665 198.475003,88.9583348 197.825,88.675 C197.174997,88.3916653 196.458337,88.083335 195.675,87.75 C194.891663,87.416665 194.175003,87.0000025 193.525,86.5 C192.874997,85.9999975 192.325002,85.3583373 191.875,84.575 C191.424998,83.7916628 191.2,82.800006 191.2,81.6 C191.2,80.399994 191.416665,79.400004 191.85,78.6 C192.283336,77.799996 192.841663,77.1500025 193.525,76.65 C194.208337,76.1499975 194.949996,75.7916678 195.75,75.575 C196.550004,75.3583323 197.33333,75.25 198.1,75.25 C199.133339,75.25 200.208328,75.4583313 201.325,75.875 C202.441672,76.2916687 203.38333,76.8833295 204.15,77.65 Z M211.5,66.45 L216.25,66.45 L216.25,75.75 L221.8,75.75 L221.8,80.05 L216.25,80.05 L216.25,97 L211.5,97 L211.5,80.05 L207.9,80.05 L207.9,75.75 L211.5,75.75 L211.5,66.45 Z" id="Catalyst"></path>
                        <path d="M37.1000122,108.55 L37.1000122,146.7 C36.8666777,146.399999 36.3500162,145.850004 35.5500122,145.05 C34.7500082,144.249996 33.7666847,143.291672 32.6000122,142.175 C31.4333397,141.058328 30.141686,139.825007 28.7250122,138.475 C27.3083385,137.124993 25.8666862,135.75834 24.4000122,134.375 C22.9333382,132.99166 21.5000192,131.63334 20.1000122,130.3 C18.7000052,128.96666 17.425018,127.741672 16.2750122,126.625 C15.1250065,125.508328 14.1583495,124.558337 13.3750122,123.775 C12.591675,122.991663 12.0833467,122.450001 11.8500122,122.15 C11.8166787,122.083333 11.6833467,121.908335 11.4500122,121.625 C11.2166777,121.341665 11.0166797,121.083335 10.8500122,120.85 L11.0000122,122.45 L11.0000122,145 L4.90001221,145 L4.90001221,106.9 C5.13334671,107.200001 5.65000821,107.741663 6.45001221,108.525 C7.25001621,109.308337 8.23333971,110.249994 9.40001221,111.35 C10.5666847,112.450006 11.8583385,113.649993 13.2750122,114.95 C14.691686,116.250006 16.1333382,117.574993 17.6000122,118.925 C19.0666862,120.275007 20.5000052,121.608327 21.9000122,122.925 C23.3000192,124.241673 24.5833397,125.441661 25.7500122,126.525 C26.9166847,127.608339 27.891675,128.53333 28.6750122,129.3 C29.4583495,130.06667 29.9666777,130.599998 30.2000122,130.9 L31.1500122,132.3 L31.0000122,130.6 L31.0000122,108.55 L37.1000122,108.55 Z M61.6000122,142.55 C60.5666737,143.483338 59.3166862,144.216664 57.8500122,144.75 C56.3833382,145.283336 54.8833532,145.55 53.3500122,145.55 C51.7833377,145.55 50.3083525,145.258336 48.9250122,144.675 C47.541672,144.091664 46.341684,143.291672 45.3250122,142.275 C44.3083405,141.258328 43.5000152,140.075007 42.9000122,138.725 C42.3000092,137.374993 42.0000122,135.933341 42.0000122,134.4 C42.0000122,132.866659 42.3000092,131.425007 42.9000122,130.075 C43.5000152,128.724993 44.3083405,127.541672 45.3250122,126.525 C46.341684,125.508328 47.5250055,124.708336 48.8750122,124.125 C50.225019,123.541664 51.6500047,123.25 53.1500122,123.25 C55.5500242,123.25 57.6583365,123.974993 59.4750122,125.425 C61.291688,126.875007 62.5833417,128.783321 63.3500122,131.15 C62.3500072,131.516668 61.1916855,131.958331 59.8750122,132.475 C58.558339,132.991669 57.1833527,133.533331 55.7500122,134.1 C54.3166717,134.66667 52.8833527,135.241664 51.4500122,135.825 C50.0166717,136.408336 48.7000182,136.933331 47.5000122,137.4 C48.0666817,138.433338 48.8500072,139.266663 49.8500122,139.9 C50.8500172,140.533337 51.9833392,140.85 53.2500122,140.85 C54.1166832,140.85 54.9916745,140.691668 55.8750122,140.375 C56.75835,140.058332 57.4833427,139.633336 58.0500122,139.1 L61.6000122,142.55 Z M57.4000122,130.05 C57.0000102,129.316663 56.4000162,128.775002 55.6000122,128.425 C54.8000082,128.074998 54.0166827,127.9 53.2500122,127.9 C52.3500077,127.9 51.5000162,128.074998 50.7000122,128.425 C49.9000082,128.775002 49.2166817,129.241664 48.6500122,129.825 C48.0833427,130.408336 47.6333472,131.074996 47.3000122,131.825 C46.9666772,132.575004 46.8000122,133.349996 46.8000122,134.15 L46.8000122,134.35 C47.6333497,134.016665 48.5250075,133.658335 49.4750122,133.275 C50.425017,132.891665 51.3750075,132.500002 52.3250122,132.1 C53.275017,131.699998 54.1833412,131.325002 55.0500122,130.975 C55.9166832,130.624998 56.7000087,130.316668 57.4000122,130.05 Z M69.0000122,114.45 L73.7500122,114.45 L73.7500122,123.75 L79.3000122,123.75 L79.3000122,128.05 L73.7500122,128.05 L73.7500122,145 L69.0000122,145 L69.0000122,128.05 L65.4000122,128.05 L65.4000122,123.75 L69.0000122,123.75 L69.0000122,114.45 Z M94.3000122,126.85 L92.8500122,123.75 L97.0000122,123.75 C98.0000172,125.916677 98.8333422,127.766659 99.5000122,129.3 C100.166682,130.833341 100.716677,132.124995 101.150012,133.175 C101.583348,134.225005 101.925011,135.074997 102.175012,135.725 C102.425013,136.375003 102.616678,136.899998 102.750012,137.3 C102.883346,136.399995 103.058344,135.583337 103.275012,134.85 C103.49168,134.116663 103.80001,133.283338 104.200012,132.35 C104.600014,131.416662 105.108342,130.28334 105.725012,128.95 C106.341682,127.61666 107.100008,125.883344 108.000012,123.75 L112.800012,123.75 L102.750012,146.25 C102.116676,144.983327 101.550015,143.741673 101.050012,142.525 C100.55001,141.308327 100.050015,140.100006 99.5500122,138.9 C99.0500097,137.699994 98.5416815,136.491673 98.0250122,135.275 C97.508343,134.058327 96.9333487,132.816673 96.3000122,131.55 C95.1666732,134.083346 94.091684,136.533321 93.0750122,138.9 C92.0583405,141.266679 91.0000177,143.716654 89.9000122,146.25 L80.3500122,123.75 L85.1500122,123.75 C86.0500167,125.916677 86.7833427,127.66666 87.3500122,129 C87.9166817,130.33334 88.3666772,131.466662 88.7000122,132.4 C89.0333472,133.333338 89.2833447,134.15833 89.4500122,134.875 C89.6166797,135.59167 89.7666782,136.399995 89.9000122,137.3 C90.0000127,136.999999 90.1250115,136.650002 90.2750122,136.25 C90.425013,135.849998 90.6500107,135.275004 90.9500122,134.525 C91.2500137,133.774996 91.6666762,132.791673 92.2000122,131.575 C92.7333482,130.358327 93.4333412,128.783343 94.3000122,126.85 Z M114.000012,134.35 C114.000012,132.816659 114.291676,131.375007 114.875012,130.025 C115.458348,128.674993 116.266674,127.500005 117.300012,126.5 C118.333351,125.499995 119.541672,124.708336 120.925012,124.125 C122.308352,123.541664 123.783338,123.25 125.350012,123.25 C126.95002,123.25 128.433339,123.541664 129.800012,124.125 C131.166686,124.708336 132.341674,125.499995 133.325012,126.5 C134.30835,127.500005 135.083343,128.674993 135.650012,130.025 C136.216682,131.375007 136.500012,132.816659 136.500012,134.35 C136.500012,135.883341 136.225015,137.333326 135.675012,138.7 C135.125009,140.066674 134.350017,141.258328 133.350012,142.275 C132.350007,143.291672 131.166686,144.091664 129.800012,144.675 C128.433339,145.258336 126.933354,145.55 125.300012,145.55 C123.733338,145.55 122.266686,145.283336 120.900012,144.75 C119.533339,144.216664 118.341684,143.458338 117.325012,142.475 C116.30834,141.491662 115.500015,140.30834 114.900012,138.925 C114.300009,137.54166 114.000012,136.016675 114.000012,134.35 Z M118.750012,134.4 C118.750012,135.300005 118.916677,136.141663 119.250012,136.925 C119.583347,137.708337 120.041676,138.391664 120.625012,138.975 C121.208348,139.558336 121.891675,140.016665 122.675012,140.35 C123.458349,140.683335 124.300008,140.85 125.200012,140.85 C126.100017,140.85 126.941675,140.683335 127.725012,140.35 C128.508349,140.016665 129.191676,139.558336 129.775012,138.975 C130.358348,138.391664 130.82501,137.708337 131.175012,136.925 C131.525014,136.141663 131.700012,135.300005 131.700012,134.4 C131.700012,133.499996 131.525014,132.658337 131.175012,131.875 C130.82501,131.091663 130.358348,130.408336 129.775012,129.825 C129.191676,129.241664 128.508349,128.775002 127.725012,128.425 C126.941675,128.074998 126.100017,127.9 125.200012,127.9 C124.300008,127.9 123.458349,128.074998 122.675012,128.425 C121.891675,128.775002 121.208348,129.241664 120.625012,129.825 C120.041676,130.408336 119.583347,131.091663 119.250012,131.875 C118.916677,132.658337 118.750012,133.499996 118.750012,134.4 Z M152.950012,129.4 C152.016674,129.4 151.125016,129.516665 150.275012,129.75 C149.425008,129.983335 148.675015,130.341664 148.025012,130.825 C147.375009,131.308336 146.850014,131.90833 146.450012,132.625 C146.05001,133.34167 145.850012,134.183329 145.850012,135.15 L145.850012,145 L141.050012,145 L141.050012,123.75 L145.250012,123.75 C145.316679,124.950006 145.391678,125.924996 145.475012,126.675 C145.558346,127.425004 145.633345,128.266662 145.700012,129.2 C146.133348,128.266662 146.716675,127.433337 147.450012,126.7 C148.183349,125.966663 148.941675,125.341669 149.725012,124.825 C150.508349,124.308331 151.283342,123.908335 152.050012,123.625 C152.816683,123.341665 153.466676,123.2 154.000012,123.2 L152.950012,129.4 Z M172.550012,123.25 L175.400012,126.05 C174.133339,127.216673 172.925018,128.358328 171.775012,129.475 C170.625006,130.591672 169.416685,131.733328 168.150012,132.9 C169.65002,134.90001 171.116672,136.916656 172.550012,138.95 C173.983353,140.983343 175.450005,142.99999 176.950012,145 L171.450012,145 C170.350007,143.499993 169.233351,142.008341 168.100012,140.525 C166.966673,139.041659 165.866684,137.550007 164.800012,136.05 L162.050012,138.55 L162.050012,145 L157.250012,145 L157.250012,105.95 L162.050012,105.95 L162.050012,133 C163.850021,131.299992 165.600004,129.675008 167.300012,128.125 C169.000021,126.574992 170.750003,124.950008 172.550012,123.25 Z" id="Network"></path>
                    </g>
                </g>
                <g id="vfc-logo-mark" transform="translate(196.000000, 0.000000)" fill-rule="nonzero">
                    <path d="M199.823051,70.4427119 C199.084068,82.3220339 189.735593,89.6440678 180.139661,89.8922034 C167.936271,90.2101695 152.304407,87.9410169 143.68678,92.0088136 C135.227119,95.9938983 128.222373,103.144407 128.146441,115.437288 C128.063051,127.71661 135.626441,136.016949 144.417627,139.590508 C148.649492,141.306441 154.429831,141.471186 162.067119,141.471186 C168.741017,141.471186 176.387797,140.816949 181.847458,141.471186 C192.016949,142.765424 199.905085,151.218983 199.657627,162.456271 C199.498983,173.275254 191.522034,181.906441 181.105085,182.795932 C168.667119,183.844746 157.842712,182.065085 150.685424,178.398644 C143.11661,174.502373 137.427797,168.482712 131.644068,162.698305 C123.425085,154.48 114.075254,145.117288 105.20339,136.748475 C102.355254,134.067119 98.860339,131.301695 96.659661,128.04678 C92.840678,122.517966 91.6142373,112.100339 95.6047458,105.102373 C97.3138983,102.019661 100.162034,99.4135593 102.601356,97.2081356 C113.178983,87.6935593 124.32678,75.8962712 135.143729,65.5681356 C140.514576,60.4325424 145.562034,54.8264407 153.697627,51.5661017 C157.352542,50.1044068 161.907119,48.9667797 166.955254,48.6427119 C171.837288,48.2298305 177.533559,47.9118644 182.578983,48.6427119 C188.275254,49.3728814 192.018305,52.3857627 194.942373,55.7986441 C197.548475,58.7349153 200.31322,64.4237288 199.823051,70.4427119 Z" id="Shape"></path>
                    <path d="M131.484746,183.113898 C134.496949,189.864407 135.144407,197.682034 135.144407,206.389831 C135.144407,216.069153 132.863051,221.599322 127.823051,226.004068 C123.424407,229.817627 114.480678,232.423729 106.828475,229.498983 C101.134915,227.383051 95.7694915,221.853559 94.2169492,215.338305 C93.0861017,210.775593 93.6447458,205.326102 93.6447458,199.79661 C93.6447458,194.669153 93.8915254,188.738305 93.4861017,183.684068 C92.7559322,173.195254 88.040678,167.017627 81.6122034,163.025763 C74.2067797,158.385763 63.9545763,157.972881 56.4732203,161.805424 C50.199322,164.900339 44.3457627,170.590508 42.6359322,180.519322 C40.8501695,190.51661 43.0433898,202.892203 41.9050847,212.730847 C40.6847458,223.473898 31.8942373,230.623729 21.0766102,230.541695 C10.0935593,230.387119 1.8820339,222.660339 0.827118644,212.16 C-0.475932203,200.210847 1.38576271,188.656271 5.13016949,181.410847 C9.44542373,173.275254 15.1410169,168.633898 21.4013559,162.298305 C30.0325424,153.67322 38.7274576,144.311186 47.6833898,135.369492 C52.8061017,130.240678 55.9776271,125.2 65.9132203,124.39322 C80.2264407,123.166102 85.9233898,133.418983 93.1620339,140.658983 C102.35322,149.757966 110.819661,158.465763 119.76,167.911186 C123.672542,172.131525 128.63661,176.936271 131.484746,183.113898" id="Shape"></path>
                    <path d="M93.6474576,31.5633898 C93.6474576,25.9450847 93.0888136,20.4915254 94.219661,15.940339 C95.7701695,9.42576271 101.135593,3.89559322 106.831186,1.78576271 C114.48339,-1.15050847 123.426441,1.44881356 127.825763,5.28135593 C132.865763,9.67389831 135.147119,15.2094915 135.147119,24.8894915 C135.147119,33.5972881 134.499661,41.3959322 131.487458,48.1518644 C128.640678,54.3294915 123.675932,59.1349153 119.766102,63.3742373 C110.825085,72.8 102.357288,81.5077966 93.1681356,90.6216949 C85.9281356,97.8616949 80.2325424,108.12 65.919322,106.892881 C55.9844068,106.086102 52.8122034,101.032542 47.6894915,95.9166102 C38.7335593,86.9613559 30.039322,77.6115254 21.4074576,68.980339 C15.1471186,62.6311864 9.45152542,58.0040678 5.13627119,49.8684746 C1.39254237,42.6223729 -0.469830508,31.0677966 0.833220339,19.1125424 C1.88813559,8.61830508 10.099661,0.883389831 21.0827119,0.717966102 C31.900339,0.642033898 40.6908475,7.80474576 41.9111864,18.540339 C43.0494915,28.3850847 40.8562712,40.7477966 42.6420339,50.7579661 C44.3518644,60.6861017 50.2054237,66.3742373 56.479322,69.4759322 C63.96,73.2894915 74.2135593,72.8888136 81.6183051,68.2488136 C88.0454237,64.2637288 92.760678,58.079322 93.4922034,47.5857627 C93.8942373,42.540339 93.6474576,36.5972881 93.6474576,31.5633898" id="Shape"></path>
                </g>
            </g>
        </g>
    </g>
</svg>