<?xml version="1.0" encoding="UTF-8"?>
<svg width="1438px" height="244px" viewBox="0 0 1438 244" version="1.1" xmlns="http://www.w3.org/2000/svg" xmlns:xlink="http://www.w3.org/1999/xlink">
    <!-- Generator: Sketch 49.2 (51160) - http://www.bohemiancoding.com/sketch -->
    <title>ライン</title>
    <desc>Created with Sketch.</desc>
    <defs></defs>
    <g id="完成" stroke="none" stroke-width="1" fill="none" fill-rule="evenodd" stroke-linecap="square">
        <g id="vcn_pc_180731" transform="translate(0.000000, -3948.000000)" stroke="#4A4A4A">
            <g id="ライン" transform="translate(-1.000000, 3949.000000)">
                <path d="M0,51.6243965 C222.157197,6.25303304 353.803461,-9.21153108 394.938793,5.2307041 C586.956874,72.6464798 778.647463,161 893.384691,161 C958.40695,161 958.037605,135.740976 1063.46454,114.090028 C1157.05655,94.8695512 1282.23504,74.0476741 1439,51.6243965" id="Line"></path>
                <path d="M0,92.6243965 C222.157197,47.253033 353.803461,31.7884689 394.938793,46.2307041 C586.956874,113.64648 778.647463,202 893.384691,202 C958.40695,202 958.037605,176.740976 1063.46454,155.090028 C1157.05655,135.869551 1282.23504,115.047674 1439,92.6243965" id="Line-Copy"></path>
                <path d="M0,132.624396 C222.157197,87.253033 353.803461,71.7884689 394.938793,86.2307041 C586.956874,153.64648 778.647463,242 893.384691,242 C958.40695,242 958.037605,216.740976 1063.46454,195.090028 C1157.05655,175.869551 1282.23504,155.047674 1439,132.624396" id="Line-Copy-2"></path>
            </g>
        </g>
    </g>
</svg>